<?xml version="1.0" encoding="utf-8"?>
<!-- Generator: Adobe Illustrator 16.0.0, SVG Export Plug-In . SVG Version: 6.00 Build 0)  -->
<!DOCTYPE svg PUBLIC "-//W3C//DTD SVG 1.1//EN" "http://www.w3.org/Graphics/SVG/1.1/DTD/svg11.dtd">
<svg version="1.1" id="Layer_1" xmlns="http://www.w3.org/2000/svg" xmlns:xlink="http://www.w3.org/1999/xlink" x="0px" y="0px"
	 width="600px" height="396px" viewBox="0 0 600 396" enable-background="new 0 0 600 396" xml:space="preserve">
<g>
	<polygon fill="#50BFA5" points="227.677,83.615 223.547,84.882 220.775,78.464 214.509,79.572 211.649,75.108 209.39,76.557 
		213.215,82.527 219.153,81.477 222.037,88.153 228.249,86.247 	"/>
	<polygon fill="#50BFA5" points="492.437,314.447 488.31,315.713 485.536,309.296 479.272,310.404 476.41,305.939 474.152,307.388 
		477.977,313.357 483.915,312.309 486.799,318.983 493.011,317.077 	"/>
	<g>
		<g>
			<path fill="#50BFA5" d="M202.237,390.43c0,0-22.03-74.674-23.799-91.146c-1.768-16.471,10.551-11.365,10.551-11.365
				s-10.362-31.386-2.868-38.836c7.494-7.449,14.253,6.437,14.253,6.437s2.269-38.101,10.259-38.115
				c14.881-0.026,14.587,41.552,14.587,41.552s3.798-16.278,11.767-11.813c12.018,6.729-5.215,39.351-5.215,39.351
				s15.312,0.012,20.69,7.732C262.115,308.079,202.237,390.43,202.237,390.43z"/>
		</g>
	</g>
	<g>
		<g>
			<path fill="#50BFA5" d="M209.44,380.546c0,0-63.512-10.62-77.327-21.874c-13.814-11.253-0.141-16.329-0.141-16.329
				s-31.904-16.354-31.535-27.477c0.37-11.12,16.22-5.468,16.22-5.468s-26.883-30.653-20.519-36.476
				c11.854-10.845,42.932,21.022,42.932,21.022s-9.228-15.153,0.491-17.551c14.657-3.617,25.474,33.749,25.474,33.749
				s-2.749-14.756,7.358-12.79C190.526,300.88,209.44,380.546,209.44,380.546z"/>
		</g>
		<path fill="#3C8F7C" d="M172.393,297.354c-10.131-1.832-7.358,12.79-7.358,12.79s-10.817-37.366-25.474-33.749
			c-9.719,2.397-0.491,17.551-0.491,17.551s-31.078-31.867-42.932-21.022l113.087,107.64
			C207.212,370.282,189.379,300.425,172.393,297.354z"/>
	</g>
	<g>
		<path fill="#355389" d="M227.509,389.306c0,0-33.447-34.014-50.29-37.557c-16.844-3.542-13.814,8.442-13.814,8.442
			s-33.418-29.224-41.164-22.144c-7.743,7.08,0.633,13.917,0.633,13.917s-27.836-4.933-31.82,4.203
			c-6.123,14.035,39.657,21.675,39.657,21.675s-19.184,1.33-14.735,10.13C122.685,401.247,227.509,389.306,227.509,389.306z"/>
		<path fill="#466EB6" d="M91.054,356.168c3.984-9.136,31.82-4.203,31.82-4.203s-8.376-6.837-0.633-13.917
			c7.745-7.08,40.125,18.171,40.125,18.171s-7.634-14.595,9.209-11.052c16.843,3.541,55.934,44.139,55.934,44.139L91.054,356.168z"
			/>
	</g>
	<g>
		<path fill="#F7CC7F" d="M280.756,38.502c-11.257,1.852-14.601,16.628-5.242,23.238c1.681,1.187,2.845,2.973,3.339,4.969
			l1.704,6.875c0.47,1.894,2.313,3.109,4.241,2.792l4.266-0.701c1.926-0.317,3.284-2.06,3.121-4.005
			c-0.592-7.096-1.323-9.67,0.982-12.834C299.917,49.576,292.019,36.65,280.756,38.502z"/>
		<g>
			<path fill="#FAE0B2" d="M281.906,68.542c-0.734-6.081-1.763-12.498-2.113-14.319c-6.452,0.356-4-6.446-1.021-3.68
				c0.85,0.787,1.25,1.857,1.514,3.028c2.144-0.192,4.237-0.806,6.149-1.792c-0.104-1.5-0.252-2.635,0.169-3.595
				c0.633-1.45,2.469-1.844,3.214-0.432c0.281,0.53,0.329,1.208,0.127,1.77c-0.432,1.2-1.734,1.991-2.869,2.611
				c0.337,4.833,0.809,9.705,1.4,14.501l-0.607,0.076c-0.586-4.72-1.05-9.511-1.387-14.267c-1.896,0.943-3.961,1.533-6.071,1.731
				c0.44,2.328,1.417,8.585,2.104,14.293L281.906,68.542z M276.73,52.79c0.573,0.619,1.532,0.89,2.936,0.826
				c-0.242-1.033-0.603-1.961-1.313-2.621C276.751,49.504,275.766,51.753,276.73,52.79z M287.164,48.431
				c-0.353,0.806-0.219,1.84-0.137,3.028c0.921-0.525,1.993-1.182,2.34-2.143c0.243-0.674-0.032-1.626-0.717-1.802
				C288.575,47.494,287.411,47.865,287.164,48.431z"/>
		</g>
		<path fill="#96D9C9" d="M278.804,66.541c0.015,0.058,0.035,0.112,0.05,0.169l1.704,6.875c0.47,1.894,2.313,3.109,4.241,2.792
			l4.266-0.701c1.926-0.317,3.284-2.06,3.121-4.005c-0.264-3.156-0.553-5.417-0.592-7.234L278.804,66.541z"/>
		<g>
			<path fill="#FAE0B2" d="M272.412,33.37l-3.367-6.146c-0.325-0.596-0.107-1.341,0.487-1.667c0.595-0.326,1.342-0.107,1.667,0.486
				l3.366,6.146c0.326,0.595,0.108,1.341-0.486,1.667C273.481,34.184,272.736,33.961,272.412,33.37z"/>
		</g>
		<g>
			<path fill="#FAE0B2" d="M265.052,48.234l-7.338-0.641c-0.675-0.06-1.175-0.655-1.116-1.331c0.06-0.675,0.655-1.175,1.332-1.116
				l7.337,0.642c0.675,0.059,1.175,0.654,1.115,1.33C266.324,47.793,265.729,48.292,265.052,48.234z"/>
		</g>
		<g>
			<path fill="#FAE0B2" d="M257.777,70.732c-0.477-0.483-0.472-1.26,0.01-1.736c1.804-1.783,3.788-3.401,5.896-4.81
				c0.564-0.376,1.327-0.225,1.703,0.339c0.377,0.564,0.225,1.326-0.339,1.703c-1.979,1.324-3.842,2.841-5.534,4.515
				C259.033,71.217,258.256,71.217,257.777,70.732z"/>
		</g>
		<g>
			<path fill="#FAE0B2" d="M290.543,33.038c-0.657-0.175-1.045-0.85-0.871-1.504c0.833-3.11,1.343-6.319,1.516-9.535
				c0.036-0.677,0.614-1.198,1.291-1.16c0.677,0.036,1.197,0.614,1.161,1.291c-0.184,3.385-0.718,6.763-1.595,10.037
				C291.869,32.827,291.192,33.212,290.543,33.038z"/>
		</g>
		<g>
			<path fill="#FAE0B2" d="M298.101,42.471c-0.197-0.649,0.171-1.333,0.819-1.531l7.629-2.299c0.65-0.196,1.336,0.173,1.53,0.822
				c0.196,0.649-0.17,1.334-0.82,1.53l-7.63,2.299C298.982,43.487,298.296,43.121,298.101,42.471z"/>
		</g>
		<g>
			<path fill="#FAE0B2" d="M310.632,62.771c-0.11,0-0.223-0.016-0.333-0.047c-2.645-0.743-5.214-1.773-7.64-3.063
				c-0.598-0.318-0.825-1.062-0.508-1.66c0.318-0.599,1.063-0.826,1.66-0.508c2.272,1.207,4.678,2.171,7.151,2.867
				c0.653,0.183,1.035,0.861,0.851,1.514C311.661,62.417,311.169,62.771,310.632,62.771z"/>
		</g>
	</g>
	<path fill="#F7CC7F" d="M422.375,117.052l-3.849-9.102l-9.681-1.989c-1.1-0.226-1.466-1.619-0.614-2.356l7.466-6.474l-1.099-9.82
		c-0.125-1.119,1.086-1.896,2.051-1.314l8.463,5.101l9.001-4.081c1.025-0.464,2.138,0.447,1.883,1.544l-2.236,9.625l6.663,7.3
		c0.759,0.832,0.234,2.171-0.887,2.268l-9.845,0.85l-4.885,8.59C424.252,118.172,422.815,118.089,422.375,117.052z"/>
	<polygon fill="#F48C7F" points="483.65,85.823 482.068,92.194 471.532,90.78 468.071,99.812 460.015,100.043 460.131,104.121 
		470.906,103.812 474.187,95.253 485.145,96.724 487.524,87.136 	"/>
	<path fill="#B75742" d="M389.8,391.266H204.641c-7.072,0-12.806-5.948-12.806-13.282v-7.897c0-7.336,5.734-13.283,12.806-13.283
		H389.8l0,0c-8.469,9.603-8.614,24.278-0.339,34.062L389.8,391.266z"/>
	<path fill="#FAE0B2" d="M386.944,360.751H284.244c-7.074,0-12.806,5.948-12.806,13.284l0,0c0,7.335,5.732,13.281,12.806,13.281
		h102.707C382.152,379.169,382.16,368.878,386.944,360.751z"/>
	<path fill="#86B1F2" d="M324.751,332.869c0.271-0.505-0.141-1.088-0.763-1.088h-97.974c-7.679,0-13.905,5.603-13.905,12.514l0,0
		c0,6.911,6.226,12.514,13.905,12.514h98.001c0.625,0,1.036-0.589,0.764-1.096l0,0C320.9,348.48,320.91,340.069,324.751,332.869z"/>
	<path fill="#F7CC7F" d="M324.133,334.109h-48.555c-9.013,0-16.319,4.696-16.319,10.487c0,5.792,7.307,10.485,16.319,10.485h48.875
		C321.112,348.41,321.02,340.812,324.133,334.109z"/>
	<g>
		<path fill="#B75742" d="M311.594,339.081h-6.324c-1.36,0-2.462,0.456-2.462,1.021v0.09h8.786V339.081z"/>
		<path fill="#F47458" d="M316.989,341.639c0-1.414-1.653-2.558-3.689-2.558h-8.116c1.545,0,2.798,0.866,2.798,1.938l-0.038,27.418
			l4.484-3.525l4.571,3.525L316.989,341.639z"/>
	</g>
	<g>
		<path fill="#FAE0B2" d="M306.738,330.878h-57.005c-5.055,0-9.153-4.864-9.153-10.863l0,0c0-6.001,4.098-10.863,9.153-10.863
			h57.005l0,0c-4.356,6.02-4.527,14.854-0.406,21.11L306.738,330.878z"/>
		<path fill="#466EB6" d="M240.585,320.015L240.585,320.015c0-6.001,4.194-10.863,9.369-10.863h57.873
			c0.268,0,0.485-0.257,0.483-0.571l0,0c-0.002-0.309-0.22-0.556-0.483-0.556H216.02c-5.711,0-10.341,5.368-10.341,11.99l0,0
			c0,6.621,4.63,11.989,10.341,11.989h91.804c0.266,0,0.483-0.249,0.485-0.559l0,0c0.002-0.312-0.216-0.567-0.485-0.567h-57.871
			C244.779,330.878,240.585,326.014,240.585,320.015z"/>
		<g>
			<path fill="#184655" d="M296.782,314.488h-6.322c-1.36,0-2.463,0.448-2.463,1.002v0.089h8.785V314.488z"/>
			<path fill="#3C8F7C" d="M302.178,316.997c0-1.385-1.652-2.509-3.688-2.509h-8.115c1.546,0,2.798,0.854,2.798,1.903l-0.039,26.888
				l4.484-3.458l4.57,3.458L302.178,316.997z"/>
		</g>
	</g>
	<g>
		<g>
			<path fill="#184655" d="M397.568,148.405l8.416-2.214l-5.704,76.079l-10.097,0.336l5.094-71.437
				C395.37,149.853,396.291,148.742,397.568,148.405z"/>
			<g>
				<path fill="#F7CC7F" d="M401.034,224.439c-0.189,0.019-0.383,0.015-0.577-0.009c-1.672-0.198-2.91-1.858-2.764-3.713
					l5.602-71.537c0.145-1.853,1.616-3.196,3.29-2.998c1.671,0.198,2.91,1.861,2.764,3.714l-5.602,71.534
					C403.618,223.07,402.456,224.308,401.034,224.439z"/>
				<path fill="#F7CC7F" d="M323.58,228.249c0.002,0.053,0.004,0.106,0.011,0.158l0,0c0.264,2.91,2.519,5.089,5.036,4.86
					l71.073-6.359c2.518-0.226,4.345-2.768,4.081-5.678c-0.01-0.125-0.026-0.245-0.045-0.365L323.58,228.249z"/>
			</g>
		</g>
		<path fill="#F7A491" d="M373.071,305.089c-4.654,2.581-18.879-1.945-18.879-2.353c-0.204,3.886-15.929,41.938-15.929,41.938
			l0.011,11.712c0,0,32.403,1.542,31.938-1.321c-0.468-2.863-2.211-1.001-8.675-6.408c-0.573-0.481-9.647-2.587-7.192-7.959
			C359.291,329.88,369.797,311.842,373.071,305.089z"/>
		<path fill="#3C8F7C" d="M337.209,356.803l35.469,0.01c1.281-0.13,1.58-1.172,1.128-1.805c-0.933-1.303-7.728-4.378-12.297-6.418
			c-7.96,0.93-21.951-2.13-23.232-3.944C334.907,349.157,336.495,356.654,337.209,356.803z"/>
		<path fill="#355389" d="M329.43,277.767c-0.48-1.438,30.538-14.6,31.925-13.098c2.456,2.66-16.783,52.596-16.783,52.596
			l22.104,6.754c0,0,22.978-57.69,22.02-68.242c-0.96-10.552-12.471-22.543-37.411-14.869
			C326.341,248.582,329.43,277.767,329.43,277.767z"/>
		<path fill="#F7A491" d="M393.649,311.651c-5.235-0.953-12.021-1.224-17.455-1.317c0.641,4.837,3.749,29.639,3.182,31.164
			c-2.304,6.174-7.411,9.065-7.411,9.065s24.087,21.731,25.54,19.22c1.454-2.51-1.073-2.173-2.646-10.453
			c-0.139-0.735-3.622-12.294-3.837-18.526C390.608,328.916,393.471,318.253,393.649,311.651z"/>
		<path fill="#466EB6" d="M385.923,230.507c-3.361-1.792-12.082-1.854-21.676-1.233c-18.697,1.211-37.156,4.891-54.942,10.784
			l-11.905,3.941l0.038-12.203c0,0-37.863-6.335-39.181,3.049c-1.984,14.134,0.478,42.823,13.094,49.229
			c39.188,19.891,94.103-31.69,94.302-24.94c0.269,9.063,7.91,42.788,9.862,57.557c5.433,0.093,14.765,0.09,18.813-0.84
			C395.117,286.924,395.488,235.61,385.923,230.507z"/>
		<path fill="#3C8F7C" d="M371.233,351.071l27.072,21.627c1.072,0.709,1.965,0.096,2.016-0.681c0.108-1.598-3.202-8.285-5.444-12.76
			c-6.745-4.323-15.643-15.604-15.482-17.818C376.538,343.849,370.773,350.505,371.233,351.071z"/>
		<path fill="#13375B" d="M309.948,112.546c-0.909-8.313-1.864-16.658-8.757-22.752c-5.577-4.931-12.67-5.766-19.68-3.128
			c-19.867,7.476-9.63,25.119-34.962,42.909c-7.872,5.528-16.547,9.311-22.474,16.754c-8.295,10.418-5.163,22.951,2.397,31.316
			c36.173,40.034,76.558-14.031,79.456-27.01C308.086,140.979,310.536,117.899,309.948,112.546z"/>
		<path fill="#50BFA5" d="M302.605,159.296c-2.957-5.447-6-9.771-6-9.771c-3.064-5.448-10.982-8.204-10.982-8.204
			s-2.648,0.054-5.689,0.203c-0.189,0.504-0.382,0.866-0.574,1.011c-1.142,0.856-7.693-0.25-11.923,2.623
			c-14.181,12.156-10.259,71.077-9.144,89.687l43.188,0.41c0,0-5.444-40.044,3.328-50.331
			C310.92,177.759,306.989,167.377,302.605,159.296z"/>
		<path fill="#F7A491" d="M283.136,121.389c0,0-2.373,16.955-4.031,21.074c-1.658,4.121,9.119,12.932,18.083,15.606
			c8.966,2.674-2.739-9.101-2.368-13.505c0.372-4.405,2-25.258,2-25.258L283.136,121.389z"/>
		<path fill="#F47458" d="M296.366,125.286c0.263-3.449,0.453-5.98,0.453-5.98l-13.684,2.083c0,0-0.344,1.991-0.724,4.808
			C287.956,129.415,292.947,128.399,296.366,125.286z"/>
		<path fill="#F7A491" d="M287.428,90.42c0,0-5.394,1.216-8.723,6.298c-3.332,5.082-5.616,20.042,5.352,27.026
			c10.968,6.983,19.499-2.896,19.64-12.53C303.836,101.58,301.773,88.722,287.428,90.42z"/>
		
			<ellipse transform="matrix(0.9277 0.3733 -0.3733 0.9277 61.9847 -105.6461)" fill="#F7A491" cx="303.756" cy="107.213" rx="2.643" ry="4.538"/>
		<path fill="#13375B" d="M289.047,90.105c0,0-6.878,15.422-12.918,16.799c-6.04,1.377-5.952,9.138-5.952,9.138
			s0.135-17.921,5.796-22.031C281.633,89.901,289.047,90.105,289.047,90.105z"/>
		
			<ellipse transform="matrix(0.9531 -0.3027 0.3027 0.9531 -20.701 88.5847)" fill="#F7A491" cx="275.465" cy="111.084" rx="3.216" ry="4.757"/>
		<path fill="#F7A491" d="M355.779,221.452c-2.59-0.938-6.447-1.054-6.382-1.396c0.258-1.386,11.705,3.056,10.16,1.037
			c-0.86-1.126-9.429-5.11-11.512-4.452c-2.021,0.638-15.289,4.361-15.289,4.361l-36.258-8.499c0,0-9.154-20.798-10.047-38.666
			c-7.565,1.024-12.716,2.892-19.291,6.542c3.171,17.089,10.878,44.786,19.397,49.984c3.584,2.188,46.38-2.617,46.38-2.617
			s9.43-0.666,10.972-1.259c1.169-0.45,4.179-2.145,5.814-2.608c3.721-1.055,10.35,1.593,10.37,0.863
			C360.11,224.213,358.427,222.409,355.779,221.452z"/>
		<path fill="#96D9C9" d="M286.674,154.746c-0.348-5.498-2.43-10.807-8.282-12.517c-3.624-1.059-7.692-0.044-10.59,2.322
			c-3.446,2.815-4.409,7.331-4.393,11.605c0.037,9.706,0.698,19.77,2.471,29.325c6.575-3.649,14.251-5.842,21.816-6.867
			C287.693,178.558,287.135,162.013,286.674,154.746z"/>
	</g>
	<g>
		<path fill="#F7CC7F" d="M174.329,165.12l-56.213-10.466c-1.13-0.21-1.874-1.296-1.665-2.425l7.042-37.817
			c0.21-1.129,1.295-1.874,2.425-1.664l56.214,10.469c1.129,0.209,1.875,1.295,1.664,2.425l-7.042,37.816
			C176.544,164.586,175.459,165.332,174.329,165.12z"/>
		<path fill="#F7CC7F" d="M147.571,121.889l-17.112-3.187c-1.128-0.21-1.874-1.295-1.664-2.425l1.072-5.753
			c0.21-1.129,1.296-1.874,2.425-1.665l17.111,3.186c1.129,0.211,1.874,1.297,1.664,2.426l-1.071,5.754
			C149.785,121.354,148.7,122.099,147.571,121.889z"/>
		<path fill="#FAE0B2" d="M176.89,163.675c-0.292,1.035-1.325,1.676-2.382,1.479l-56.582-10.537
			c-1.052-0.195-1.784-1.158-1.69-2.225l2.961-33.899c0.051-0.583,0.347-1.119,0.813-1.475c0.468-0.354,1.061-0.496,1.639-0.389
			l62.857,11.705c0.575,0.108,1.078,0.451,1.385,0.947c0.309,0.496,0.394,1.1,0.235,1.662L176.89,163.675z"/>
	</g>
	<g>
		<polygon fill="#50BFA5" points="434.726,39.813 425.101,42.44 423.027,30.775 426.176,30.215 427.638,38.431 433.884,36.726 		"/>
	</g>
	<g>
		<path fill="#355389" d="M128.047,200.019c2.41-0.198,6.112,0.864,7.771,1.99c0.25,0.233,2.157,0.992,4.141,4.28l-0.446,0.308
			c-2.094-2.19-3.501-2.681-5.177-3.183c-2.765-0.713-5.549-0.18-5.779-0.058L128.047,200.019z"/>
		<path fill="#F47458" d="M139.736,206.442c0,0-14.688,2.452-13.318,13.925c1.371,11.474,16.866,20.402,30.695,13.306
			c18.604-9.546,11.256-33.818-1.985-35.694C141.886,196.101,139.736,206.442,139.736,206.442z"/>
		<path fill="#F48C7F" d="M145.968,201.392c0,0,3.831-3.937,12.228-0.355c8.396,3.578,9.003,20.27,1.515,19.297
			C152.223,219.365,139.98,203.798,145.968,201.392z"/>
	</g>
	<g>
		<path fill="#86B1F2" d="M247.011,48.953l-60.409,21.55c-1.948,0.694-4.089-0.32-4.783-2.269l-11.151-31.258
			c-0.694-1.947,0.321-4.088,2.269-4.783l60.41-21.549c1.947-0.695,4.089,0.321,4.783,2.268l11.151,31.259
			C249.973,46.118,248.957,48.258,247.011,48.953z"/>
		<circle fill="#FFFFFF" cx="195.695" cy="44.942" r="11.971"/>
		<circle fill="#86B1F2" cx="194.086" cy="40.43" r="3.53"/>
		<path fill="#86B1F2" d="M203.162,49.087l-10.626,3.791l-0.425-1.192c-0.776-2.176,0.359-4.569,2.535-5.345l2.747-0.979
			c2.176-0.776,4.568,0.358,5.344,2.534L203.162,49.087z"/>
		<g>
			<path fill="#FFFFFF" d="M208.46,34.384c-0.645,0-1.223-0.406-1.438-1.013c-0.284-0.793,0.131-1.668,0.924-1.951L234.354,22
				c0.166-0.059,0.338-0.089,0.513-0.089c0.644,0,1.222,0.407,1.438,1.014c0.283,0.793-0.132,1.668-0.925,1.952l-26.407,9.419
				C208.806,34.354,208.634,34.384,208.46,34.384z"/>
		</g>
		<g>
			<path fill="#FFFFFF" d="M215.587,40.967c-0.644,0-1.221-0.407-1.438-1.013c-0.283-0.793,0.132-1.668,0.925-1.952l20.625-7.357
				c0.165-0.06,0.337-0.088,0.513-0.088c0.644,0,1.222,0.407,1.438,1.013c0.137,0.384,0.116,0.798-0.058,1.167
				c-0.176,0.368-0.484,0.647-0.867,0.784l-20.625,7.358C215.935,40.937,215.762,40.967,215.587,40.967z"/>
		</g>
	</g>
	<path fill="#F47458" d="M340.873,284.726H195.007c-4.529,0-8.201,3.674-8.201,8.202v6.896c0,4.531,3.672,8.203,8.201,8.203h145.866
		l-0.077-0.08C334.555,301.454,334.59,291.181,340.873,284.726z"/>
	<path fill="#FAE0B2" d="M338.29,288.175h-77.976c-4.53,0-8.201,3.671-8.201,8.203l0,0c0,4.529,3.671,8.199,8.201,8.199h77.974
		C335.422,299.501,335.426,293.249,338.29,288.175z"/>
	<g>
		<g>
			<path fill="#FAE0B2" d="M460.256,285.396l-11.058-27.74c-0.555-1.396,0.124-2.978,1.521-3.535l39.785-15.858
				c1.397-0.555,2.979,0.126,3.534,1.52l11.057,27.741c0.558,1.396-0.122,2.979-1.519,3.533l-39.787,15.86
				C462.394,287.473,460.811,286.792,460.256,285.396z"/>
			<path fill="#466EB6" d="M497.789,269.357l-9.936-24.928c-0.16-0.401,0.035-0.855,0.436-1.016l0,0
				c0.4-0.158,0.854,0.037,1.015,0.438l9.934,24.927c0.161,0.4-0.035,0.854-0.435,1.014l0,0
				C498.403,269.951,497.947,269.758,497.789,269.357z"/>
			<path fill="#466EB6" d="M493.055,266.072l-8.157-20.467c-0.161-0.4,0.036-0.854,0.435-1.013l0,0
				c0.4-0.158,0.856,0.036,1.016,0.436l8.157,20.467c0.16,0.4-0.036,0.854-0.436,1.015l0,0
				C493.669,266.668,493.213,266.474,493.055,266.072z"/>
			<path fill="#466EB6" d="M491.877,271.714l-9.937-24.93c-0.159-0.4,0.037-0.854,0.438-1.015l0,0
				c0.4-0.158,0.854,0.038,1.015,0.438l9.935,24.928c0.161,0.399-0.034,0.853-0.437,1.014l0,0
				C492.492,272.308,492.038,272.114,491.877,271.714z"/>
			<path fill="#466EB6" d="M486.655,267.202l-7.668-19.239c-0.16-0.401,0.034-0.854,0.435-1.013l0,0
				c0.401-0.16,0.854,0.034,1.015,0.435l7.67,19.238c0.159,0.402-0.036,0.856-0.437,1.017l0,0
				C487.269,267.797,486.815,267.603,486.655,267.202z"/>
			<g>
				<path fill="#355389" d="M497.522,241.769l-0.2-0.501c-0.073-0.184-0.275-0.278-0.447-0.208l-3.776,1.505
					c-0.175,0.07-0.257,0.274-0.183,0.461l0.201,0.501c0.072,0.187,0.274,0.278,0.446,0.21l3.778-1.506
					C497.514,242.16,497.595,241.955,497.522,241.769z"/>
				<path fill="#355389" d="M498.378,243.918l-0.201-0.502c-0.073-0.188-0.275-0.278-0.447-0.211l-3.775,1.506
					c-0.176,0.07-0.257,0.276-0.184,0.46l0.202,0.503c0.073,0.185,0.273,0.278,0.447,0.209l3.775-1.505
					C498.369,244.308,498.451,244.101,498.378,243.918z"/>
				<path fill="#355389" d="M499.232,246.065l-0.198-0.504c-0.074-0.184-0.274-0.277-0.447-0.207l-3.778,1.506
					c-0.173,0.067-0.255,0.273-0.182,0.459l0.202,0.502c0.073,0.183,0.273,0.277,0.447,0.207l3.775-1.505
					C499.227,246.456,499.307,246.25,499.232,246.065z"/>
				<path fill="#355389" d="M500.088,248.213l-0.199-0.503c-0.073-0.185-0.274-0.279-0.449-0.211l-3.774,1.507
					c-0.175,0.068-0.255,0.274-0.183,0.459l0.201,0.504c0.073,0.185,0.274,0.277,0.447,0.209l3.776-1.505
					C500.082,248.603,500.162,248.397,500.088,248.213z"/>
				<path fill="#355389" d="M500.945,250.358l-0.2-0.503c-0.072-0.184-0.273-0.278-0.449-0.208l-3.775,1.504
					c-0.173,0.07-0.254,0.277-0.181,0.462l0.198,0.5c0.076,0.186,0.275,0.279,0.45,0.211l3.775-1.506
					C500.938,250.75,501.018,250.543,500.945,250.358z"/>
				<path fill="#355389" d="M501.8,252.506l-0.198-0.502c-0.076-0.186-0.275-0.279-0.451-0.209l-3.775,1.504
					c-0.172,0.07-0.256,0.275-0.181,0.462l0.199,0.501c0.075,0.184,0.275,0.278,0.449,0.208l3.775-1.504
					C501.792,252.896,501.873,252.69,501.8,252.506z"/>
				<path fill="#355389" d="M502.656,254.653l-0.199-0.502c-0.073-0.187-0.275-0.278-0.449-0.209l-3.775,1.505
					c-0.174,0.067-0.255,0.274-0.182,0.459l0.201,0.503c0.072,0.185,0.272,0.279,0.445,0.209l3.778-1.505
					C502.65,255.043,502.73,254.838,502.656,254.653z"/>
				<path fill="#355389" d="M503.51,256.799l-0.197-0.501c-0.075-0.185-0.276-0.279-0.449-0.209l-3.775,1.505
					c-0.176,0.07-0.255,0.273-0.182,0.458l0.2,0.505c0.073,0.183,0.273,0.276,0.449,0.206l3.775-1.502
					C503.505,257.19,503.585,256.985,503.51,256.799z"/>
				<path fill="#355389" d="M504.368,258.946l-0.201-0.501c-0.073-0.186-0.272-0.278-0.449-0.209l-3.774,1.505
					c-0.175,0.068-0.256,0.275-0.182,0.459l0.2,0.501c0.073,0.188,0.274,0.279,0.447,0.211l3.775-1.506
					C504.361,259.337,504.442,259.131,504.368,258.946z"/>
				<path fill="#355389" d="M505.223,261.095l-0.2-0.504c-0.073-0.185-0.274-0.278-0.447-0.208l-3.775,1.504
					c-0.175,0.07-0.256,0.276-0.183,0.462l0.198,0.501c0.075,0.184,0.275,0.278,0.449,0.21l3.778-1.507
					C505.216,261.483,505.298,261.278,505.223,261.095z"/>
				<path fill="#355389" d="M506.08,263.241l-0.202-0.503c-0.072-0.187-0.273-0.278-0.447-0.21l-3.777,1.506
					c-0.172,0.068-0.254,0.275-0.181,0.461l0.199,0.5c0.075,0.187,0.276,0.281,0.449,0.211l3.775-1.505
					C506.071,263.631,506.154,263.425,506.08,263.241z"/>
				<path fill="#355389" d="M506.934,265.388l-0.198-0.503c-0.073-0.184-0.275-0.278-0.447-0.208l-3.778,1.507
					c-0.173,0.067-0.255,0.273-0.181,0.458l0.201,0.503c0.07,0.183,0.272,0.276,0.447,0.208l3.776-1.506
					C506.928,265.779,507.009,265.573,506.934,265.388z"/>
			</g>
		</g>
		<g>
			<path fill="#B75742" d="M517.367,263.178l-15.79,22.486c-0.037,0.05-0.063,0.105-0.082,0.165l-1.61,4.938
				c-0.187,0.577,0.478,1.051,0.959,0.686l4.228-3.186c0.051-0.036,0.098-0.085,0.135-0.139l15.831-22.544
				c0.201-0.287,0.124-0.686-0.173-0.875l-2.658-1.698C517.928,262.836,517.559,262.907,517.367,263.178z"/>
			<path fill="#F7CC7F" d="M505.19,288.154l-0.041,0.057l-4.078,3.072l-1.11-0.744l1.525-4.683
				C502.68,286.509,504.112,287.182,505.19,288.154z"/>
		</g>
	</g>
	<g>
		<path fill="#466EB6" d="M357.392,19.753c2.271,1.814,6.226,7.651,11.271,11.75c2.952,2.397,5.224,1.788,8.991,2.244
			c17.874,2.159,13.031,5.813,15.175,6.172c-0.61,1.401-6.178,13.238-7.219,15.63c-0.96,2.207-2.618,3.194-5.021,2.862
			c-3.697-0.511-7.428-0.891-11.066-1.68c-9.328-2.023-14.518-6.688-21.203-12.354c-1.774-1.503-2.21-3.378-1.291-5.503
			C351.308,28.984,356.926,20.663,357.392,19.753z"/>
		<path fill="#86B1F2" d="M394.764,54.158c-0.08,3.894,0.217,4.676-1.456,4.085c-1.007-0.355-1.982-0.819-2.933-1.31
			c-0.67-0.347-0.696-0.804-0.15-1.351c0.792-0.797,1.606-1.573,2.401-2.347c-0.581-1.527,0.084-3.306,1.513-4.142
			c0.293-0.17,0.078,0.191,2.568-5.537c-8.23-1.015-14.04-1.697-24.082-2.932c-2.685-0.33-5.071-1.374-7.149-3.111
			c-7.171-6.001-14.343-12.002-21.511-18.01c-0.974-0.815-1.095-2.01-0.322-2.928c0.59-0.703,1.372-0.737,2.212-0.632
			c2.294,0.288,24.764,3.079,27.045,3.346c2.997,0.35,5.636,1.48,7.954,3.421c7.047,5.901,14.11,11.78,21.166,17.669
			c0.97,0.809,1.23,1.55,0.892,2.449c-0.373,0.987-1.189,1.458-2.422,1.192c-0.891-0.192-1.285,0.077-1.59,0.901
			c-1.385,3.726-2.351,4.551-2.018,5.911C397.141,51.883,395.892,53.701,394.764,54.158z"/>
	</g>
	<g>
		<path fill="#466EB6" d="M432.042,318.749l4.095,3.905c9.688,9.238,17.586,20.185,23.302,32.288l0.627,1.329
			c0,0,10.723,0.947,12.222-8.749l0,0c-9.41-10.622-17.153-21.962-23.547-34.577l-1.937-4.535L432.042,318.749z"/>
		<path fill="#86B1F2" d="M446.794,308.398c0.527,0.756-2.349,3.67-6.424,6.511c-4.074,2.843-7.822,4.568-8.349,3.814
			c-0.526-0.756,2.367-3.705,6.443-6.547C442.54,309.336,446.269,307.645,446.794,308.398z"/>
		<path fill="#355389" d="M446.813,308.426l-0.013-0.016c0,0-8.164,6.911-11.529,7.615l1.039,1.414
			c1.228-0.664,2.623-1.527,4.061-2.53C444.399,312.1,447.253,309.221,446.813,308.426z"/>
		<g>
			<path fill="#B75742" d="M457.718,328.486c0.015,1.19-0.443,6.332-8.994,8.477c0.563,0.768,1.115,1.539,1.658,2.321
				c5.413-1.601,7.849-4.38,8.942-6.496c0.174-0.335,0.382-0.784,0.521-1.131C459.123,330.607,458.414,329.551,457.718,328.486z"/>
			<polygon fill="#B75742" points="449.49,335.444 436.905,334.994 439.884,337.525 438.103,340.762 450.019,337.723 			"/>
			<polygon fill="#B75742" points="450.638,338.372 446.165,346.162 449.311,344.964 450.523,347.439 452.622,339.245 			"/>
			
				<ellipse transform="matrix(0.0707 0.9975 -0.9975 0.0707 755.6344 -138.3276)" fill="#F47458" cx="452.053" cy="336.36" rx="4.133" ry="4.011"/>
		</g>
	</g>
	<g>
		<path fill="#9BC1F9" d="M479.064,163.712l-26.508-23.655c-1.723-1.537-1.004-4.7,1.37-6.045l21.157-11.979
			c1.355-0.767,2.881-0.696,3.863,0.181l26.507,23.654c1.724,1.537,1.007,4.7-1.37,6.045l-21.156,11.98
			C481.573,164.659,480.046,164.587,479.064,163.712z"/>
		<g>
			<path fill="#FFFFFF" d="M477.81,144.894l-2.21-18.174c-0.086-0.696,0.421-1.44,1.132-1.661c0.71-0.222,1.354,0.165,1.438,0.86
				l2.035,16.723l20.102,4.862c0.654,0.158,0.955,0.864,0.673,1.578c-0.285,0.712-1.045,1.162-1.702,1.003L477.81,144.894z"/>
		</g>
	</g>
	<g>
		<path fill="#184655" d="M30.292,391.048c-1.418,0-2.568,1.33-2.568,2.972c0,1.643,1.15,2.974,2.875,0.977h522.101
			c0.667,0,1.21-0.875,1.215-1.961l0,0c0.004-1.096-0.541-1.987-1.215-1.987H30.292z"/>
	</g>
	<polygon fill="#F7CC7F" points="131.651,61.649 134.391,67.07 140.581,66.87 143.221,73.163 149.751,70.916 153.052,77.901 
		159.317,76.573 163.592,82.775 161.245,84.393 158.049,79.756 151.437,81.157 148.263,74.442 141.627,76.727 138.712,69.782 
		132.666,69.977 130.127,64.954 126.184,65.913 125.51,63.142 	"/>
	<polygon fill="#50BFA5" points="463.165,200.311 468.794,202.597 473.327,198.379 479.454,201.39 482.901,195.408 489.977,198.506 
		493.829,193.388 501.127,195.256 500.419,198.017 494.965,196.622 490.9,202.021 484.097,199.042 480.593,205.124 473.832,201.804 
		469.405,205.922 464.189,203.804 461.846,207.116 459.518,205.47 	"/>
</g>
</svg>
