<?xml version="1.0" encoding="utf-8"?>
<!-- Generator: Adobe Illustrator 16.0.0, SVG Export Plug-In . SVG Version: 6.00 Build 0)  -->
<!DOCTYPE svg PUBLIC "-//W3C//DTD SVG 1.1//EN" "http://www.w3.org/Graphics/SVG/1.1/DTD/svg11.dtd">
<svg version="1.1" id="Layer_1" xmlns="http://www.w3.org/2000/svg" xmlns:xlink="http://www.w3.org/1999/xlink" x="0px" y="0px"
	 width="600px" height="396px" viewBox="0 0 600 396" enable-background="new 0 0 600 396" xml:space="preserve">
<g>
	<path fill="#EBF3FA" d="M44.106,395.836c0,0-72.133-77.447-12.199-161.294c53.177-74.396,115.176-69.311,160.664-39.12
		c19.374,12.858,75.231,1.584,122.772-74.115c64.833-103.235,289.57-40.623,248.595,118.206
		c-19.83,76.861,60.35,79.656,19.494,156.487L44.106,395.836z"/>
	<g>
		
			<rect x="65.666" y="305.25" transform="matrix(-0.6772 -0.7358 0.7358 -0.6772 -81.8125 643.985)" fill="#DFEBFD" width="69.377" height="69.377"/>
		
			<rect x="74.609" y="284.867" transform="matrix(-0.6772 -0.7358 0.7358 -0.6772 -98.278 595.996)" fill="#BED7FB" width="13.973" height="69.377"/>
	</g>
	<g>
		<polygon fill="#9EC3F6" points="251.474,89.826 286.477,94.819 263.249,78.987 262.067,84.063 253.555,85.604 		"/>
		<polygon fill="#CDE0FB" points="286.477,94.819 257.348,79.802 228.8,78.366 		"/>
		<polygon fill="#CDE0FB" points="263.249,78.987 286.477,94.819 268.495,70.076 		"/>
	</g>
	<g>
		<path fill="#FFFFFF" d="M447.212,158.882l-8.804,6.318l-8.85-6.25c1.96-2.76,5.2-4.584,8.85-4.584
			C442.035,154.366,445.251,156.145,447.212,158.882z"/>
		<g>
			<path fill="#FFFFFF" d="M438.408,138.969c-8.85,0-16.675,4.403-21.419,11.131l5.59,3.924c3.513-4.973,9.307-8.212,15.829-8.212
				c6.478,0,12.226,3.194,15.738,8.098l5.565-3.992C454.946,143.281,447.167,138.969,438.408,138.969z"/>
		</g>
		<g>
			<path fill="#FFFFFF" d="M438.408,109.704c-18.727,0-35.287,9.306-45.324,23.539l5.59,3.924
				c8.804-12.455,23.335-20.621,39.734-20.621c16.263,0,30.703,8.03,39.529,20.324l5.542-3.993
				C473.421,118.852,456.975,109.704,438.408,109.704z"/>
		</g>
		<g>
			<path fill="#FFFFFF" d="M438.408,125.716c-13.321,0-25.138,6.593-32.321,16.698l5.587,3.922
				c5.955-8.326,15.717-13.776,26.734-13.776c10.926,0,20.619,5.36,26.596,13.571l5.544-3.969
				C463.339,132.195,451.615,125.716,438.408,125.716z"/>
		</g>
	</g>
	<path fill="#ADCBF9" d="M255.779,197.219l-8.072-0.185c2.593,3.361,3.176,6.458,1.562,9.077c-1.615,2.673-5.479,4.87-11.249,6.538
		c4.368-11.619,6.564-23.872,6.564-36.444c0-27.187-10.579-53.798-30.542-73.706c-19.324-19.324-45.445-30.542-73.707-30.542
		c-15.87,0-31.204,3.517-45.151,10.243c-0.004,0.001-0.008,0.005-0.013,0.007c-4.484-1.369-8.851-2.491-13.064-3.344
		c-21.271-4.316-36.365-1.333-42.497,8.399c-5.835,9.258-2.659,23.194,8.92,39.445c-0.001,0.002-0.003,0.004-0.004,0.007
		c-2.588,4.78-5.078,10.449-6.908,15.879c-21.755,1.297-33.4,5.126-37.634,12.06c-4.923,8.072,1.8,18.905,23.316,29.438
		c2.964,1.457,6.14,2.885,9.475,4.314c2.577,22.647,12.894,44.6,29.827,61.532c9.58,9.554,20.722,17.072,33.134,22.337
		c38.024,16.041,83.354,8.53,114.306-22.337c9.315-9.315,16.701-20.165,21.914-32.182c10.613-2.197,17.6-5.637,20.378-10.189
		C258.266,204.418,258.028,200.925,255.779,197.219z M230.874,214.289c-7.066,1.271-15.88,2.013-26.174,2.119
		c-15.975,0.193-34.322-1.067-53.657-3.616c1.627-3.542,3.222-7.183,4.777-10.903c6,2.008,11.823,3.598,17.376,4.724
		c6.362,1.293,12.167,1.93,17.35,1.93c12.146,0,20.849-3.507,25.147-10.329c0.707-1.123,1.284-2.316,1.729-3.574h-6.192
		c-0.102,0.188-0.211,0.374-0.325,0.557c-3.193,5.068-10.327,7.685-20.344,7.683c-4.791,0-10.246-0.598-16.24-1.815
		c-5.224-1.061-10.704-2.548-16.353-4.424c1.491-3.729,2.941-7.53,4.34-11.39c3.775-10.407,7.006-20.723,9.62-30.631
		c21.183,3.123,43.313,3.217,64.572,1.614c1.345,6.521,2.024,13.195,2.024,19.973C238.523,189.413,235.956,202.222,230.874,214.289z
		 M101.872,265.971c-3.011-1.092-4.541-5.414-5.292-8.848c-1.189-5.426-1.403-13.048-0.621-22.042
		c0.395-4.547,1.031-9.383,1.887-14.441c12.344,3.29,24.568,7.521,36.47,12.62c-2.681,4.623-5.392,8.91-8.102,12.794
		c-5.165,7.405-10.216,13.116-14.607,16.519C108.827,264.726,104.884,267.063,101.872,265.971z M137.042,228.419
		c-12.459-5.369-25.269-9.805-38.206-13.229c0.456-2.349,0.956-4.737,1.5-7.161c3.598,0.817,7.246,1.608,10.94,2.371
		c10.81,2.212,21.595,4.089,32.152,5.606C141.337,220.333,139.202,224.479,137.042,228.419z M113.657,206.482
		c-4.177-0.86-8.293-1.758-12.338-2.69c1.904-7.924,4.244-16.187,6.975-24.604c14.197,8.729,28.636,15.828,42.307,20.865
		c-1.715,4.096-3.477,8.088-5.276,11.952C134.942,210.516,124.318,208.667,113.657,206.482z M78.982,99.513
		c7.892,16.168,23.101,29.489,39.467,38.326c-3.965,8.64-7.742,17.86-11.214,27.436c-0.647,1.785-1.276,3.567-1.892,5.346
		c-20.742-13.501-38.301-28.993-49.821-43.985c-0.002-0.002-0.004-0.004-0.005-0.006C61.596,116.257,69.518,107.101,78.982,99.513z
		 M167.67,84.552c3.012,1.092,4.541,5.414,5.293,8.848c1.188,5.427,1.403,13.048,0.621,22.041
		c-0.856,9.845-2.827,21.024-5.761,32.929c-14.425-2.481-28.839-6.573-42.11-13.014c5.656-11.797,11.637-22.315,17.617-30.888
		c5.166-7.403,10.216-13.114,14.606-16.517c2.292-1.775,5.375-3.676,8.075-3.676C166.584,84.274,167.141,84.36,167.67,84.552z
		 M166.45,153.734c-2.546,9.581-5.682,19.557-9.335,29.63c-1.409,3.884-2.867,7.707-4.367,11.454
		c-13.725-5.04-28.293-12.248-42.615-21.15c0.741-2.165,1.504-4.335,2.294-6.51c3.394-9.36,7.078-18.369,10.942-26.803
		C136.886,146.906,151.53,151.134,166.45,153.734z M209.754,106.759c12.736,12.736,21.185,28.031,25.458,44.027
		c-22.635,1.655-43.376,1.135-61.917-1.547c2.942-12.022,4.923-23.33,5.792-33.32c0.959-11.031,0.842-24.095-3.63-31.448
		C188.412,89.449,199.984,96.961,209.754,106.759z M140.335,77.991c6.803,0,13.493,0.685,20.033,2.043
		c-7.714,3.357-15.591,12.703-21.568,21.274c-6.118,8.771-12.229,19.505-17.999,31.521c-15.575-8.463-30.286-21.436-37.318-36.719
		C99.902,84.433,119.647,77.991,140.335,77.991z M44.399,90.282c3.193-5.068,10.327-7.685,20.345-7.685
		c4.791,0,10.245,0.597,16.239,1.815c2.276,0.46,4.6,1.003,6.965,1.626c0.002,0,0.004,0,0.006,0.002
		c-14.302,8.271-26.898,20.24-36.278,35.248c-0.002,0.003-0.003,0.006-0.005,0.008C42.819,108.154,40.158,97.01,44.399,90.282z
		 M52.575,132.061c0.001-0.001,0.002-0.003,0.003-0.004c12.129,15.161,30.008,30.66,50.896,44.102
		c-2.961,9.014-5.489,17.875-7.528,26.365c-17.319-4.191-37.45-10.117-53.349-16.843c-1.319-13.183,0.117-26.528,4.075-39.116
		C48.21,141.683,50.248,136.651,52.575,132.061z M32.117,180.97c-18.764-9.158-27.339-17.998-23.501-24.269
		c3.096-5.081,14.37-8.522,31.626-9.793c-3.479,11.741-4.688,23.947-3.97,36.02C34.843,182.293,33.467,181.631,32.117,180.97z
		 M94.959,206.775c-0.535,2.388-1.028,4.74-1.481,7.057c-1.205-0.294-2.409-0.579-3.615-0.853
		c-20.37-4.637-35.655-5.58-42.741-5.739c-1.754-5.287-3.045-10.694-3.862-16.215C57.136,196.365,72.758,201.484,94.959,206.775z
		 M49.175,212.842c7.557,0.303,21.566,1.448,39.462,5.521c1.28,0.292,2.56,0.598,3.838,0.909c-0.921,5.372-1.601,10.506-2.02,15.33
		c-0.795,9.143-0.852,19.683,1.698,27.21c-7.761-4.368-14.878-9.774-21.264-16.161C61.369,236.131,54.042,224.982,49.175,212.842z
		 M110.556,269.823c7.265-3.805,14.564-12.551,20.187-20.61c2.898-4.154,5.795-8.754,8.656-13.72
		c16.492,7.47,32.349,16.645,47.245,27.334C162.091,275.949,134.439,277.434,110.556,269.823z M209.754,245.651
		c-5.427,5.444-11.406,10.174-17.861,14.156c-15.646-11.435-32.365-21.224-49.783-29.147c2.395-4.389,4.755-9.021,7.059-13.86
		c15.943,2.114,31.271,3.381,45.263,3.71c3.652,0.105,7.199,0.105,10.64,0.079c8.919-0.106,16.858-0.636,23.66-1.59
		C223.967,228.872,217.589,237.818,209.754,245.651z"/>
	<g>
		<g>
			<path fill="#D86713" d="M207.527,213.489L193.11,384.905c0,0-1.51,10.392,6.219,10.409c12.708,0.03,63.253,0,63.253,0
				s-9.565-2.162-9.449-7.029c0.137-5.737,16.849-176.418,16.849-176.418L207.527,213.489z"/>
			<path fill="#F99746" d="M266.683,392.206c-2.5,0.006-50.776,0.158-63.152,0c-5.394-0.068-6.339-4.797-6.383-7.856
				c-0.023-1.467,0.164-2.552,0.164-2.552l0.374-4.456l0.956-11.355l0.844-10.033l1.084-12.892l0.914-10.88l10.243-121.804
				l62.457-1.62c0,0-7.04,71.428-12.019,123.424c-0.555,5.792-1.084,11.348-1.573,16.531c-0.159,1.656-0.311,3.275-0.459,4.851
				c-0.461,4.919-0.883,9.438-1.251,13.426c-0.194,2.103-0.372,4.056-0.534,5.845c-0.635,7.013-1.007,11.49-1.012,12.342
				c-0.002,0.496,0.04,0.959,0.122,1.388C258.483,392.026,265.745,392.206,266.683,392.206z"/>
			<polygon fill="#F99746" points="55.848,120.21 90.965,261.266 95.773,280.582 112.128,346.282 415.987,346.282 355.703,120.21 
							"/>
			<polygon fill="#EE9849" points="55.848,120.21 50.981,121.833 105.658,351.189 112.128,346.283 			"/>
			<polygon fill="#D86713" points="105.658,351.189 407.646,351.189 415.985,346.283 112.128,346.283 			"/>
			<rect x="211.708" y="392.273" fill="#F1A34F" width="65.384" height="3.108"/>
			<polygon fill="#F1A34F" points="401.266,304.626 351.961,123.2 55.362,123.2 55.362,120.21 355.702,120.21 404.841,304.223 			
				"/>
			<polygon fill="#D86713" points="260.47,351.188 260.133,353.563 198.642,365.986 199.486,355.953 199.888,351.188 			"/>
			<path opacity="0.4" fill="#D86713" d="M266.683,392.206c-2.5,0.006-50.776,0.158-63.152,0c-5.394-0.068-6.339-4.797-6.383-7.856
				l61.2-11.516c-0.635,7.013-1.007,11.49-1.012,12.342c-0.002,0.496,0.04,0.959,0.122,1.388
				C258.483,392.026,265.745,392.206,266.683,392.206z"/>
			<polygon opacity="0.4" fill="#D86713" points="245.609,300.517 112.128,346.283 95.773,280.582 			"/>
			<polygon fill="#699DEE" points="55.848,120.21 355.702,120.21 404.355,301.901 99.535,301.901 			"/>
		</g>
		<path fill="#D86713" d="M272.113,324.869c-0.867-4.456-5.181-8.068-9.637-8.068s-7.366,3.612-6.5,8.068
			c0.866,4.456,5.181,8.069,9.637,8.069S272.979,329.325,272.113,324.869z"/>
		<polygon fill="#E9F3FE" points="390.214,294.028 109.458,294.028 77.662,167.367 75.226,157.655 73.146,149.37 71.481,142.737 
			68.269,129.942 344.977,129.942 345.171,130.646 348.501,142.737 350.331,149.37 352.616,157.655 355.294,167.367 		"/>
		<polygon fill="#E9F3FE" points="390.214,294.461 109.458,294.461 77.662,167.801 75.226,158.088 73.146,149.802 71.481,143.169 
			68.269,130.375 344.977,130.375 345.171,131.079 348.501,143.169 350.331,149.802 352.616,158.088 355.294,167.801 		"/>
		<polygon fill="#AFCDFB" points="348.501,142.737 71.481,142.737 68.269,129.942 344.87,129.942 345.171,130.646 		"/>
		<g>
			<path fill="#E9F3FE" d="M75.967,136.339c-0.334-1.341,0.482-2.428,1.823-2.428s2.699,1.086,3.034,2.428s-0.482,2.429-1.823,2.429
				C77.659,138.768,76.301,137.681,75.967,136.339z"/>
			<path fill="#E9F3FE" d="M84.035,136.339c-0.334-1.341,0.482-2.428,1.823-2.428c1.341,0,2.699,1.086,3.034,2.428
				c0.334,1.341-0.482,2.429-1.823,2.429C85.728,138.768,84.37,137.681,84.035,136.339z"/>
			<path fill="#E9F3FE" d="M92.724,136.339c-0.334-1.341,0.482-2.428,1.823-2.428s2.7,1.086,3.034,2.428
				c0.334,1.341-0.481,2.429-1.823,2.429C94.417,138.768,93.059,137.681,92.724,136.339z"/>
		</g>
		<g>
			<path fill="#2B478B" d="M196.916,294.461h-27.761c-0.267-2.169-0.501-4.464-0.711-6.855c-0.373-4.291-0.659-8.906-0.868-13.708
				c-0.052-1.108-0.095-2.227-0.136-3.351c-0.052-1.433-0.099-2.882-0.14-4.338c-0.068-2.472-0.122-4.974-0.16-7.489
				c-0.002-0.002-0.002-0.007-0.002-0.01c-0.049-3.207-0.073-6.437-0.08-9.653c0-0.003,0-0.003,0-0.003
				c-0.002-0.803-0.002-1.607-0.002-2.407v-0.003c0-0.755,0.002-1.504,0.005-2.254c0.024-6.926,0.128-13.72,0.276-20.035
				c0.319-13.973,0.838-25.62,1.113-31.216v-0.003c0.111-2.3,0.184-3.577,0.184-3.577c0.003,0,0.005,0.003,0.008,0.003
				c0.063,0.009,0.484,0.087,1.146,0.246c0.486,0.119,1.104,0.282,1.805,0.497h0.002c0.634,0.191,1.333,0.428,2.068,0.708
				c0.003,0,0.005,0,0.008,0.002c1.25,0.482,2.597,1.096,3.865,1.867c0.02,0.01,0.04,0.02,0.059,0.029
				c2.073,1.287,3.945,2.992,4.798,5.244c0.733,1.913,2.449,12.197,4.521,25.854c0.058,0.391,0.116,0.783,0.177,1.179
				c1.096,7.252,2.281,15.39,3.471,23.699c1.261,8.806,2.521,17.799,3.679,26.133C195.23,282.167,196.146,288.827,196.916,294.461z"
				/>
			<path fill="#233862" d="M189.14,294.461h-32.313c-0.619-2.666-1.199-5.236-1.714-7.648c-1.42-6.648-2.354-12.097-2.303-15.023
				c0.024-1.371,0.542-2.445,1.431-3.27c0.61-0.565,1.395-1.017,2.315-1.367c2.728-1.035,6.643-1.205,10.744-0.943
				c1.394,0.088,2.807,0.224,4.199,0.392c7.681,0.931,14.809,2.833,14.809,2.833s0.477,1.929,1.04,5.298
				c0.424,2.527,0.896,5.871,1.246,9.817c0.203,2.294,0.368,4.794,0.459,7.456C189.08,292.807,189.109,293.627,189.14,294.461z"/>
			<path fill="#C65447" d="M174.218,271.829l-0.322,2.333l-1.565,11.336l-0.266,1.937l-0.969,7.026H137.42
				c-0.262-4.644-0.503-9.17-0.549-13.117c-0.005-0.437-0.008-0.864-0.008-1.286c0-5.94,0.523-10.346,2.226-11.458
				c1.93-1.26,8.333-0.915,15.152-0.08c0.68,0.081,1.365,0.171,2.049,0.264c3.975,0.534,7.952,1.193,11.149,1.764
				c1.66,0.295,3.109,0.566,4.236,0.78C173.267,271.633,174.218,271.829,174.218,271.829z"/>
			<path fill="#FFFFFF" d="M136.863,195.405c0,0,18.5-11.963,31.771-5.844c2.115,0.975,4.526,3.695,6.253,5.597
				c4.796,5.285,14.168,89.242,14.168,89.242s-26.605,9.011-52.192-3.057V195.405z"/>
			<path fill="#2B478B" d="M169.686,189.257c0,0,18.729,7.677,21.266,13.574c2.537,5.896,10.781,42.113,10.781,46.36
				c0,4.246-14.355,0.948-16.667-5.9c-1.918-5.688-8.391-23.162-11.804-34.212L169.686,189.257z"/>
			<g>
				<path fill="#FFB27D" d="M165.796,195.105c-4.088,0.803-10.094-0.053-14.491-2.951c1.984-4.741,2.798-8.485,3.088-10.908
					c0.017-0.13,0.029-0.254,0.042-0.375c0.131-1.255,0.112-2.108,0.051-2.499h10.57c0,0,2.89,1.321,2.89,2.234
					c0,0.488,0.004,0.957,0.013,1.403c0.021,1.215,0.07,2.276,0.133,3.188c0.201,2.966,0.542,4.363,0.542,4.363
					S169.925,194.297,165.796,195.105z"/>
				<path fill="#E2915A" d="M168.092,185.198c-8.008,1.546-12.657-2.829-13.699-3.951c-0.147-0.162-0.224-0.256-0.224-0.256
					c0.084-0.043,0.173-0.08,0.266-0.119c2.981-1.207,9.746-0.248,13.523,1.138C167.98,183.225,168.029,184.286,168.092,185.198z"/>
				<path fill="#FFB27D" d="M151.777,176.636c1.431,7.701,11.369,7.448,15.663,6.964c1.209-0.135,1.97-0.289,1.97-0.289
					c1.363-0.365,2.123-2.51,2.476-5.322c0.701-5.564-0.184-13.731-1.125-15.821c-1.415-3.143-4.079-6.544-14.086-4.091
					C146.665,160.533,149.941,166.768,151.777,176.636z"/>
				<path fill="#233862" d="M171.134,157.872c-1.367-1.894-4.268-4.208-6.902-5.633c-5.658-3.061-12.901,0.098-12.931,0.11
					c-8.175,3.594-10.309,9.848-5.976,19.59c4.584,10.302,8.947,9.142,8.947,9.142s-0.926-0.576-0.843-3.786
					c0.005-0.182,0.012-0.335,0.02-0.466c0.043-0.659-0.19-1.318-0.681-1.758c-1.016-0.906-1.511-3.646-0.66-4.41
					c1.025-0.92,2.467,0.198,2.927,1.058c0.402,0.607,1.123,0.82,1.794,0.396c2.544-1.608,0.891-4.825,3.323-6.793
					c2.431-1.968,7.364-0.316,11.011-1.885C175.937,161.66,172.165,159.298,171.134,157.872z"/>
			</g>
			<path fill="#2B478B" d="M172.447,294.461h-40.281c0.287-8.353,0.657-18.326,1.047-28.424c0.099-2.617,0.203-5.248,0.305-7.855
				c0.046-1.104,0.086-2.203,0.13-3.301c0.89-22.425,1.773-42.674,1.96-43.766c0.423-2.467,0.822-4.569,1.255-6.393
				c1.265-5.313,2.837-8.226,6.269-10.732c0.333-0.254,3.077-1.635,5.493-2.84c1.975-0.979,3.73-1.835,3.784-1.859v-0.002h0.002
				c0.399,0.193,0.839,0.75,1.303,1.575c0.465,0.824,0.954,1.924,1.454,3.205c1.841,4.729,3.83,11.968,5.211,17.374
				c0.002,0.006,0.004,0.012,0.004,0.017c0.003,0.005,0.003,0.007,0.003,0.01c0,0.002,0,0.002,0,0.002
				c0.89,3.492,1.529,6.207,1.71,6.989c0.309,1.315,0.715,3.863,1.197,7.313v0.01c0.651,4.704,1.427,11.089,2.25,18.333v0.004
				c0.084,0.744,0.169,1.495,0.254,2.256c0.096,0.868,0.195,1.747,0.295,2.635v0.002c0.032,0.286,0.063,0.571,0.091,0.856v0.003
				c0.318,2.868,0.637,5.827,0.954,8.839c0,0.003,0,0.008,0.002,0.01c0.271,2.482,4.035,4.279,4.296,6.807
				c0.02,0.184,0.039,0.557,0.063,1.074c0.048,1.069,0.106,2.766,0.177,4.727c0.029,0.875,0.06,1.801,0.094,2.746
				c0.148,4.205,0.329,8.81,0.536,11.025c0.009,0.104,0.019,0.237,0.026,0.399c0.024,0.442,0.043,1.094,0.061,1.911
				C172.426,289.146,172.442,291.631,172.447,294.461z"/>
			<path fill="#233862" d="M144.969,220.154c-0.012,0.051-0.641,22.676,16.376,25.425c17.018,2.748,5.711,3.475,5.711,3.475
				s-32.02-1.361-32.548-2.206C133.979,246.001,144.969,220.154,144.969,220.154z"/>
			<path fill="#233862" d="M159.347,255.291c0,0-0.319,0.225-0.932,0.621c-0.011,0.004-0.021,0.013-0.032,0.02
				c-2.597,1.657-10.302,6.175-21.521,9.204c-1.177,0.319-2.395,0.621-3.649,0.9c0.099-2.616,0.203-5.244,0.305-7.854
				c-1.482-0.116-2.9-0.305-4.218-0.584c0.044-0.345,0.091-0.688,0.135-1.032c1.428-0.587,2.846-1.151,4.214-1.686
				c1.114-0.436,2.192-0.85,3.213-1.234c4.609-1.75,8.025-2.938,8.025-2.938l13.642,4.321L159.347,255.291z"/>
			<path fill="#2B478B" d="M162.959,254.912c0,0-1.753,0.438-4.543,1c-0.011,0-0.019,0.002-0.03,0.006
				c-5.146,1.034-13.797,2.484-21.523,2.406c-1.139-0.013-2.26-0.057-3.344-0.142c-1.482-0.116-2.9-0.305-4.218-0.584
				c-2.824-0.596-5.19-1.604-6.737-3.181c-11.494-11.707,6.272-53.727,10.008-57.815c4.361-4.774,12.321-6.449,16.716-7.023
				c0.184-0.023,0.359-0.046,0.53-0.068c1.545-0.183,2.537-0.221,2.591-0.224c0.003,0,0.003,0,0.003,0s-0.345,1.108-0.922,2.988
				c-0.224,0.727-0.483,1.57-0.769,2.512c-2.7,8.84-7.909,26.216-10.205,36.014c-0.841,3.586-1.292,6.156-1.086,6.925
				c0.896,3.346,10.183,5.066,16.067,5.829c2.454,0.316,4.317,0.467,4.733,0.497c0.029,0,0.057,0.003,0.086,0.007l0.341,1.396
				l0.814,3.345l0.802,3.287L162.959,254.912z"/>
			<polygon fill="#F99746" points="195.016,275.054 155.541,273.391 163.55,224.194 203.026,225.857 			"/>
			<path fill="#FFB27D" d="M160.316,244.06c0,0,7.685-0.536,8.07,1.255c0.898,4.175-6.606,7.603-9.037,7.368
				C156.917,252.45,158.548,243.78,160.316,244.06z"/>
			<path fill="#FFB27D" d="M200.867,235.849c0,0-7.353-2.3-8.141-0.646c-1.84,3.854,4.668,8.926,7.087,9.26
				C202.233,244.797,202.653,235.985,200.867,235.849z"/>
			<path fill="#233862" d="M153.209,186.817c0,0-3.233,1.541-4.854,3.866c0,0,12.084,20.981,12.031,20.783
				C160.331,211.271,156.301,189.504,153.209,186.817z"/>
			<path fill="#233862" d="M168.26,187.113c1.065,0.402,3.105,2.492,3.565,3.649l1.437,18.317c0,0-3.067-13.442-4.628-19.518
				C168.237,188.016,168.309,187.546,168.26,187.113z"/>
			<path fill="#C65447" d="M176.636,224.746c0,0,0.312-1.365,2.109-1.206c1.796,0.159,11.892,0.654,11.892,0.654
				s1.947-0.031,1.766,1.216L176.636,224.746z"/>
			<path fill="#FFFFFF" d="M165.056,178.373c0,0,1.31,1.195,3.424,0.824c1.255-0.219,1.956-1.85,1.956-1.85
				S168.027,176.914,165.056,178.373z"/>
		</g>
		<g>
			<g>
				<polygon fill="#FFFFFF" points="352.11,193.682 322.951,193.789 313.495,157.589 342.655,157.482 				"/>
				<g>
					<polygon fill="#ADCBF9" points="335.422,162.239 323.196,162.284 323.056,161.749 335.282,161.703 					"/>
					<polygon fill="#ADCBF9" points="337.374,163.727 322.024,163.783 321.883,163.248 337.234,163.191 					"/>
					<g>
						<polygon fill="#ADCBF9" points="341.595,171.094 321.656,171.167 321.516,170.632 341.454,170.558 						"/>
						<polygon fill="#ADCBF9" points="342.057,172.86 322.117,172.932 321.977,172.397 341.915,172.323 						"/>
						<polygon fill="#ADCBF9" points="342.518,174.624 322.577,174.698 322.439,174.162 342.376,174.088 						"/>
						<polygon fill="#ADCBF9" points="342.978,176.39 323.039,176.462 322.901,175.927 342.837,175.853 						"/>
						<polygon fill="#ADCBF9" points="343.44,178.154 323.5,178.228 323.361,177.692 343.299,177.619 						"/>
					</g>
					<g>
						<polygon fill="#ADCBF9" points="344.561,182.45 324.622,182.523 324.483,181.987 344.422,181.914 						"/>
						<polygon fill="#ADCBF9" points="345.022,184.214 325.084,184.289 324.944,183.752 344.883,183.679 						"/>
						<polygon fill="#ADCBF9" points="345.482,185.98 325.545,186.053 325.405,185.517 345.343,185.444 						"/>
						<polygon fill="#ADCBF9" points="345.945,187.745 326.006,187.819 325.865,187.282 345.805,187.209 						"/>
						<polygon fill="#ADCBF9" points="346.406,189.51 326.466,189.583 326.326,189.048 346.266,188.974 						"/>
					</g>
				</g>
			</g>
			<g>
				<polygon fill="#FFFFFF" points="363.861,238.666 334.701,238.773 325.244,202.573 354.405,202.465 				"/>
				<g>
					<polygon fill="#ADCBF9" points="347.172,207.223 334.946,207.267 334.806,206.732 347.033,206.686 					"/>
					<polygon fill="#ADCBF9" points="349.124,208.711 333.774,208.766 333.633,208.23 348.984,208.173 					"/>
					<g>
						<polygon fill="#ADCBF9" points="353.345,216.077 333.406,216.15 333.267,215.616 353.204,215.542 						"/>
						<polygon fill="#ADCBF9" points="353.807,217.841 333.866,217.916 333.728,217.38 353.666,217.307 						"/>
						<polygon fill="#ADCBF9" points="354.268,219.607 334.327,219.681 334.189,219.145 354.126,219.071 						"/>
						<polygon fill="#ADCBF9" points="354.728,221.372 334.789,221.446 334.65,220.909 354.588,220.836 						"/>
						<polygon fill="#ADCBF9" points="355.189,223.138 335.25,223.211 335.111,222.676 355.049,222.602 						"/>
					</g>
					<g>
						<polygon fill="#ADCBF9" points="356.311,227.433 336.372,227.506 336.232,226.971 356.172,226.896 						"/>
						<polygon fill="#ADCBF9" points="356.772,229.198 336.834,229.272 336.693,228.735 356.632,228.661 						"/>
						<polygon fill="#ADCBF9" points="357.233,230.963 337.295,231.036 337.155,230.5 357.093,230.428 						"/>
						<polygon fill="#ADCBF9" points="357.695,232.728 337.756,232.802 337.615,232.267 357.553,232.191 						"/>
						<polygon fill="#ADCBF9" points="358.156,234.493 338.216,234.565 338.076,234.031 358.016,233.957 						"/>
					</g>
				</g>
			</g>
			<g>
				<polygon fill="#FFFFFF" points="375.69,283.952 346.53,284.058 337.073,247.858 366.233,247.751 				"/>
				<g>
					<polygon fill="#ADCBF9" points="359.002,252.507 346.774,252.553 346.635,252.017 358.862,251.972 					"/>
					<polygon fill="#ADCBF9" points="360.952,253.995 345.602,254.053 345.463,253.517 360.814,253.46 					"/>
					<g>
						<polygon fill="#ADCBF9" points="365.174,261.362 345.236,261.438 345.095,260.9 365.034,260.827 						"/>
						<polygon fill="#ADCBF9" points="365.634,263.128 345.696,263.201 345.556,262.666 365.495,262.594 						"/>
						<polygon fill="#ADCBF9" points="366.095,264.893 346.157,264.967 346.017,264.431 365.956,264.357 						"/>
						<polygon fill="#ADCBF9" points="366.556,266.659 346.619,266.731 346.479,266.196 366.417,266.122 						"/>
						<polygon fill="#ADCBF9" points="367.018,268.423 347.079,268.498 346.939,267.96 366.879,267.888 						"/>
					</g>
					<g>
						<polygon fill="#ADCBF9" points="368.14,272.719 348.2,272.792 348.06,272.255 368,272.183 						"/>
						<polygon fill="#ADCBF9" points="368.6,274.483 348.662,274.557 348.522,274.021 368.46,273.948 						"/>
						<polygon fill="#ADCBF9" points="369.061,276.249 349.123,276.322 348.984,275.786 368.921,275.712 						"/>
						<polygon fill="#ADCBF9" points="369.523,278.013 349.584,278.087 349.445,277.551 369.383,277.479 						"/>
						<polygon fill="#ADCBF9" points="369.984,279.777 350.045,279.853 349.906,279.316 369.844,279.243 						"/>
					</g>
				</g>
			</g>
			<g>
				<g>
					<polygon fill="#FFFFFF" points="337.348,284.256 235.363,284.633 206.011,172.263 219.297,157.957 304.276,157.643 					"/>
					<polygon fill="#ADCBF9" points="276.183,176.632 240.24,176.767 239.829,175.191 275.771,175.059 					"/>
					<polygon fill="#ADCBF9" points="281.922,181.008 236.796,181.174 236.385,179.599 281.511,179.433 					"/>
					<g>
						<polygon fill="#ADCBF9" points="294.329,202.665 235.715,202.882 235.304,201.307 293.918,201.091 						"/>
						<polygon fill="#ADCBF9" points="295.685,207.855 237.071,208.071 236.659,206.496 295.274,206.28 						"/>
						<polygon fill="#ADCBF9" points="297.04,213.044 238.426,213.259 238.015,211.685 296.628,211.468 						"/>
						<polygon fill="#ADCBF9" points="298.395,218.231 239.781,218.449 239.37,216.875 297.984,216.657 						"/>
						<polygon fill="#ADCBF9" points="299.75,223.421 241.137,223.638 240.726,222.063 299.34,221.847 						"/>
					</g>
					<g>
						<polygon fill="#ADCBF9" points="303.049,236.048 244.435,236.265 244.024,234.689 302.638,234.473 						"/>
						<polygon fill="#ADCBF9" points="304.405,241.237 245.79,241.453 245.379,239.878 303.993,239.661 						"/>
						<polygon fill="#ADCBF9" points="305.761,246.425 247.145,246.642 246.734,245.067 305.35,244.851 						"/>
						<polygon fill="#ADCBF9" points="307.115,251.614 248.501,251.831 248.09,250.255 306.704,250.039 						"/>
						<polygon fill="#ADCBF9" points="308.471,256.804 249.857,257.02 249.445,255.444 308.059,255.228 						"/>
					</g>
				</g>
				<polygon fill="#ADCBF9" points="206.011,172.263 223.018,172.2 219.297,157.957 				"/>
			</g>
		</g>
	</g>
	<g>
		<g>
			<g>
				<path fill="#FCECDB" d="M451.651,372.384h-83.024v-29.322h83.29c6.477,0,11.726,5.249,11.726,11.726v5.607
					C463.642,367.018,458.274,372.384,451.651,372.384z"/>
				<path fill="#699DEE" d="M534.507,355.127v4.412c0,2.356-0.634,4.563-1.742,6.461c-2.227,3.818-6.366,6.384-11.106,6.384H366.081
					c-1.03,0-1.864-0.833-1.864-1.861v-0.66c0-1.028,0.834-1.861,1.864-1.861h94.838c0.509-0.619,0.955-1.287,1.332-2.001
					c0.889-1.673,1.39-3.58,1.39-5.605v-5.608c0-1.031-0.133-2.033-0.383-2.983c-0.425-1.614-1.186-3.093-2.199-4.355h-94.978
					c-1.03,0-1.864-0.834-1.864-1.862v-0.66c0-1.03,0.834-1.863,1.864-1.863h156.361c5.511,0,10.157,3.693,11.6,8.741
					C534.346,352.859,534.507,353.973,534.507,355.127z"/>
				<path fill="#548EE2" d="M534.042,351.803h-70.784c-0.425-1.614-1.186-3.093-2.199-4.355h-94.978
					c-1.03,0-1.864-0.834-1.864-1.862v-0.66c0-1.03,0.834-1.863,1.864-1.863h156.361C527.953,343.062,532.6,346.755,534.042,351.803
					z"/>
			</g>
			<polygon fill="#F4D2B8" points="368.626,357.724 380.145,358.218 368.626,358.514 			"/>
			<polygon fill="#F4D2B8" points="368.626,362.324 396.031,362.817 368.626,363.114 			"/>
		</g>
		<g>
			<g>
				<g>
					<path fill="#2B478B" d="M388.426,395.132h88.383v-22.808h-89.1c-6.101,0-11.046,4.945-11.046,11.045l0,0
						C376.663,389.866,381.93,395.132,388.426,395.132z"/>
					<path fill="#FCECDB" d="M471.735,395.132h100.59v-22.808H471.481c-6.202,0-11.229,5.027-11.229,11.23v0.092
						C460.251,389.989,465.392,395.132,471.735,395.132z"/>
					<path fill="#2B478B" d="M453.534,395.132h122.282c0.941,0,1.707-0.764,1.707-1.705l0,0c0-0.943-0.766-1.706-1.707-1.706
						H453.534c-0.943,0-1.707,0.763-1.707,1.706l0,0C451.827,394.368,452.591,395.132,453.534,395.132z"/>
					<path fill="#2B478B" d="M453.534,375.735h122.282c0.941,0,1.707-0.764,1.707-1.706l0,0c0-0.942-0.766-1.705-1.707-1.705
						H453.534c-0.943,0-1.707,0.763-1.707,1.705l0,0C451.827,374.972,452.591,375.735,453.534,375.735z"/>
				</g>
				<polygon fill="#F4D2B8" points="572.324,383.728 558.736,384.111 572.324,384.343 				"/>
				<polygon fill="#F4D2B8" points="572.324,378.48 539.998,378.862 572.324,379.093 				"/>
			</g>
			<g>
				<path fill="#699DEE" d="M540.33,378.785c0,0,1.385,0.981,1.844,2.592c0.082,0.28,0.133,0.583,0.144,0.901
					c0.077,2.14,0,6.983,0,6.983l4.09-2.422l4.079,2.422v-6.564c0-1.242-0.349-2.449-0.998-3.24
					c-0.315-0.383-0.698-0.672-1.131-0.672H540.33z"/>
				<path fill="#568CDB" d="M540.33,378.785c0,0,1.385,0.981,1.844,2.592l8.196,0.096c0,0-0.32-2.308-2.013-2.688H540.33z"/>
			</g>
		</g>
		<g>
			<g>
				<g>
					<path fill="#FCECDB" d="M461.448,343.124h90.303v-33.512h-90.6c-7.23,0-13.093,5.862-13.093,13.095v7.025
						C448.059,337.128,454.054,343.124,461.448,343.124z"/>
					<path fill="#B5453C" d="M450.184,322.614v7.212c0.021,3.08,1.727,5.753,4.232,7.182c1.232,0.701,2.658,1.103,4.173,1.103
						h98.066c1.149,0,2.08,0.932,2.08,2.08v0.853c0,1.148-0.931,2.08-2.08,2.08H387.244c-4.861,0-9.156-2.416-11.751-6.115
						c-1.636-2.329-2.597-5.167-2.597-8.231v-5.691c0-2.1,0.48-4.088,1.339-5.858c2.178-4.506,6.791-7.613,12.133-7.613h170.287
						c1.149,0,2.08,0.93,2.08,2.078v0.852c0,1.148-0.931,2.08-2.08,2.08h-98.366c-2.351,0-4.479,1.002-5.965,2.604
						C451.008,318.646,450.197,320.533,450.184,322.614z"/>
				</g>
				<polygon fill="#F4D2B8" points="551.751,326.368 539.18,326.931 551.751,327.271 				"/>
				<polygon fill="#F4D2B8" points="551.751,318.656 521.842,319.22 551.751,319.558 				"/>
			</g>
			<g>
				<path fill="#F99746" d="M522.15,319.108c0,0,1.974,1.061,2.628,2.809c0.116,0.305,0.189,0.632,0.205,0.976
					c0.109,2.321,0,7.574,0,7.574l5.828-2.626l5.813,2.626v-7.119c0-1.345-0.5-2.654-1.426-3.513
					c-0.447-0.415-0.993-0.727-1.608-0.727H522.15z"/>
				<path fill="#ED7D2B" d="M522.15,319.108c0,0,1.974,1.061,2.628,2.809l11.678,0.103c0,0-0.458-2.5-2.866-2.911H522.15z"/>
			</g>
		</g>
	</g>
	<g>
		<g>
			<path fill="#233862" d="M463.019,297.188c5.17,8.997,11.67,12.47,11.67,12.47h27.046
				C501.735,309.657,459.075,290.325,463.019,297.188z"/>
			<g>
				<path fill="#FFB27D" d="M483.791,366.792c0.706,0.808,0.795,1.71,0.447,2.673c0,0.005-0.003,0.01-0.008,0.013
					c-0.645,1.783-2.776,3.774-5.252,5.764c-0.315,0.255-0.598,0.486-0.842,0.701c-0.064,0.058-0.129,0.112-0.19,0.171
					c-0.05,0.042-0.097,0.089-0.146,0.131c-2.308,2.128-1.439,2.615-5.587,6.933c-4.728,4.921-7.985,5.009-8.911,4.561
					c-0.782-0.382,0.808-2.991,2.574-5.924c0.084-0.142,0.168-0.285,0.255-0.427c0.236-0.391,0.47-0.788,0.703-1.179
					c2.066-3.529,1.536-5.187,1.045-10.438c-0.397-4.271-6.641-23.85-6.641-23.85l9.063-1.563c0,0,2.729,15.592,5.735,17.993
					c1.607,1.28,3.408,1.296,4.954,2.245c0.108,0.066,0.217,0.134,0.32,0.203C482.191,365.381,483.085,365.982,483.791,366.792z"/>
				<path fill="#233862" d="M483.791,366.792c0.706,0.808,0.795,1.71,0.447,2.673c0,0.005-0.003,0.01-0.008,0.013
					c-0.79,1.782-2.867,3.764-5.261,5.744c-0.313,0.261-0.589,0.498-0.833,0.721c-0.064,0.058-0.129,0.112-0.19,0.171
					c-0.05,0.042-0.097,0.089-0.146,0.131c-2.308,2.128-1.439,2.615-5.587,6.933c-4.728,4.921-7.985,5.009-8.911,4.561
					c-0.782-0.382,0.808-2.991,2.574-5.924c0.921-0.338,5.196-2.075,8.428-6.212c2.848-3.633,4.746-8.303,6.687-11.006
					c0.108,0.066,0.217,0.134,0.32,0.203C482.191,365.381,483.085,365.982,483.791,366.792z"/>
				<path fill="#FFB27D" d="M410.721,361.132c-0.562,2.797-4.549,2.33-9.004,1.241c-4.454-1.088-3.395,0.206-9.736-0.496
					c-6.338-0.7-8.259-3.064-8.452-4.009c-0.174-0.836,2.959-1.132,6.318-1.519c0.423-0.048,0.848-0.099,1.271-0.15
					c3.795-0.478,6.572-2.925,10.018-4.937c3.266-1.904,8.137-9.663,8.137-9.663l8.693,0.688c0,0-4.562,6.932-6.325,9.944
					c-1.039,1.771-0.983,4.115-0.854,5.924C410.854,359.141,410.918,360.146,410.721,361.132z"/>
				<path fill="#233862" d="M401.717,362.373c-4.454-1.088-3.395,0.206-9.736-0.496c-6.338-0.7-8.259-3.064-8.452-4.009
					c-0.174-0.836,2.959-1.132,6.318-1.519l0.033,0.064c0,0,3.802,2.696,9.079,2.823c4.302,0.104,8.857-1.128,11.827-1.081
					c0.067,0.984,0.132,1.99-0.065,2.976C410.159,363.929,406.172,363.462,401.717,362.373z"/>
				<path fill="#233862" d="M444.042,305.534l8.127,21.872l10.611,28.56c0,0,2.881,0.276,5.639-0.516
					c2.537-0.736,5.451-2.654,5.451-2.654s-2.946-30.664-8.443-48.266c-1.408-4.519-2.987-8.173-4.729-10.229
					C452.176,284.229,444.042,305.534,444.042,305.534z"/>
				<path fill="#2B478B" d="M452.305,270.799c5.324-1.718,20.513,0.489,35.77,3.475l3.194-5.27l32.954-2.572
					c0,0,10.873,24.114,4.921,39.479c-0.875,2.258-2.613,3.708-5.579,3.754c-0.001,0.002-0.479-0.001-0.48,0
					c0,0-19.613-0.011-25.982-0.011c-16.388,0-34.683-11.266-37.049-11.737c-3.875-0.776-5.423,6.972-9.298,15.106
					c-3.873,8.136-36.413,36.025-36.413,36.025s-5.001,0.05-7.067-0.725c-2.223-0.834-3.034-1.915-3.034-1.915
					S440.296,274.673,452.305,270.799z"/>
				<path fill="#233862" d="M491.463,223.623c11.734,6.461,35.539,19.855,35.664,19.77c0,0,8.748,3.297,13.713,0
					c8.274-5.495,12.71-20.283-2.42-33.008c-7.546-6.348-12.908-7.893-13.722-18.027c-0.442-5.498-7.959-23.643-20.445-21.965
					c-1.044,0.14-7.467,0.441-11.688,2.657C481.808,178.699,473.87,221.121,491.463,223.623z"/>
				<path fill="#FFB27D" d="M501.297,218.123c-0.051,0.032,5.773,2.021,9.67,0.296c3.664-1.618,6.44-7.647,6.386-7.651
					c-1.667-0.076-3.497-1.533-4.907-11.096l-0.709,0.254l-11.935,4.294c0,0,0.864,3.83,1.424,7.476
					C501.697,214.757,501.949,217.69,501.297,218.123z"/>
				<path fill="#ED975D" d="M499.802,204.22c0,0,0.864,3.83,1.424,7.476c6.854-1.233,9.544-8.063,10.511-11.77L499.802,204.22z"/>
				<path fill="#FFB27D" d="M498.025,208.021c0,0,16.328-2.191,14.808-12.338c-1.521-10.149-0.439-17.266-10.928-16.296
					c-10.491,0.97-11.931,5.146-12.247,8.656C489.341,191.555,493.738,208.33,498.025,208.021z"/>
				<path fill="#233862" d="M490.253,182.481c0,0,10.45,9.008,17.562,9.735c7.109,0.726,9.802-1.556,9.802-1.556
					s-4.19-3.48-6.712-9.095c-0.744-1.656-2.314-2.792-4.123-2.948C501.705,178.179,492.081,177.979,490.253,182.481z"/>
				<path fill="#233862" d="M496.786,181.674c0,0-3.497,3.381-4.598,5.889c-1.063,2.419-1.381,8.208-0.536,10.507
					c0,0-5.447-10.594-2.363-15.741C492.56,176.871,496.786,181.674,496.786,181.674z"/>
				<path fill="#FFFFFF" d="M487.548,242.178c0.493,33.053,0.137,26.146,3.751,29.282c0.871,0.755,3.32,1.205,6.544,1.419
					c10.134,0.672,27.952-0.997,28.63-2.87c2.338-6.481,0.688-8.495,2.638-18.417c0.204-1.056,0.455-2.197,0.749-3.441
					c1.627-6.816,3.21-9.135-2.559-20.082c-5.232-9.917-10.668-17.967-11.158-17.678c-13.804,8.195-14.917,1.308-14.917,1.308
					S487.307,226.055,487.548,242.178z"/>
				<path fill="#2B478B" d="M452.169,327.406l10.611,28.56c0,0,2.881,0.276,5.639-0.516c2.537-0.736,5.451-2.654,5.451-2.654
					s-2.946-30.664-8.443-48.266L452.169,327.406z"/>
				<path fill="#FFFFFF" d="M501.226,211.695c0,0-14.204,2.408-15.873,8.524c-1.668,6.115-11.482,42.068-11.482,42.068
					s7.221,1.299,10.557-2.038s11.607-30.949,11.607-30.949L501.226,211.695z"/>
				<path fill="#EBF3FF" d="M497.843,272.879c10.134,0.672,27.952-0.997,28.63-2.87c2.338-6.481,0.688-8.495,2.638-18.417
					l-4.888-13.766c0,0,0.808,15.33-3.713,19.36c-4.517,4.031-18.509,7.784-20.706,11.151
					C498.742,269.955,498.047,271.577,497.843,272.879z"/>
				<path fill="#FFB27D" d="M509.456,266.432c0,0-10-2.228-11.613-1.339c-1.613,0.888-5.557,4.118-6.05,5.242
					c-0.494,1.125,3.593-0.853,4.921-1.209c0.86-0.231,3.127,0.556,4.248,0.931c4.718,1.573,7.608,0.764,7.608,0.764
					L509.456,266.432z"/>
				<path fill="#FFFFFF" d="M516.153,210.385c0,0,13.426,0.827,18.073,7.309c6.544,9.126,19.521,48.015,12.083,53.203
					c-8.375,5.841-38.123,1.527-38.123,1.527s-0.99-4.627,0.385-6.865c1.378-2.238,23.762-5.854,24.795-6.887
					c1.034-1.032-12.912-20.145-12.912-23.244C520.453,232.329,516.153,210.385,516.153,210.385z"/>
				<path fill="#FFB27D" d="M497.359,267.874c0,0-2.095,2.704-2.782,3.026c-0.686,0.324-1.13,0.242-1.13,0.242l1.411-2.542
					L497.359,267.874z"/>
				<path fill="#FFB27D" d="M497.843,265.093l-6.091,2.957c0,0,0.258,0.424,1.009,0.391c0.751-0.034,2.642-0.727,2.642-0.727
					L497.843,265.093z"/>
			</g>
			<g>
				<g>
					<polygon fill="#F99746" points="494.576,275.041 446.392,275.041 431.897,238.996 480.008,238.996 					"/>
					<polygon fill="#ED7D2B" points="445.826,273.636 509.456,273.636 509.456,275.041 446.392,275.041 					"/>
				</g>
				<path fill="#FFFFFF" d="M458.555,257.018c-0.363-1.267,0.37-2.294,1.637-2.294c1.269,0,2.589,1.027,2.953,2.294
					c0.362,1.268-0.37,2.295-1.638,2.295C460.24,259.313,458.919,258.285,458.555,257.018z"/>
			</g>
		</g>
	</g>
	<g>
		<g>
			<path fill="#AFCDFB" d="M56.707,289.195l-1.026,0.711c-1.095,0.761-2.604,0.487-3.364-0.608l-5.968-8.61
				c-0.76-1.097-0.486-2.604,0.61-3.364l1.469-1.02c0.215-0.148,0.509-0.095,0.658,0.121c0.148,0.214,0.096,0.507-0.119,0.656
				l-1.47,1.02c-0.667,0.463-0.833,1.381-0.371,2.048l5.968,8.61c0.462,0.667,1.38,0.833,2.047,0.37l1.026-0.711
				c0.667-0.462,0.833-1.38,0.371-2.048l-3.961-5.715c-0.149-0.215-0.096-0.509,0.119-0.658c0.214-0.148,0.509-0.095,0.659,0.118
				l3.961,5.717C58.076,286.928,57.802,288.436,56.707,289.195z"/>
		</g>
		<g>
			<path fill="#AFCDFB" d="M63.249,297.688l-1.84,1.274c-1.708,1.183-4.129,0.657-5.398-1.172l-8.972-12.945
				c-0.148-0.215-0.095-0.511,0.12-0.658c0.215-0.149,0.509-0.097,0.658,0.119l8.973,12.944c0.971,1.402,2.802,1.82,4.082,0.934
				l1.84-1.274c1.279-0.888,1.53-2.749,0.559-4.149l-10.22-14.746c-0.972-1.399-2.803-1.819-4.082-0.934
				c-0.214,0.149-0.51,0.097-0.659-0.118c-0.149-0.215-0.095-0.51,0.12-0.659c1.708-1.184,4.129-0.657,5.398,1.172l10.22,14.745
				C65.315,294.052,64.957,296.503,63.249,297.688z"/>
		</g>
	</g>
	<g>
		<g>
			<path fill="#AFCDFB" d="M75.592,365.299l0.221,1.824c0.237,1.947-1.155,3.723-3.101,3.959l-15.301,1.856
				c-1.947,0.237-3.723-1.154-3.959-3.101l-0.317-2.612c-0.045-0.381,0.226-0.728,0.607-0.774c0.381-0.047,0.729,0.226,0.775,0.606
				l0.317,2.611c0.143,1.186,1.225,2.032,2.409,1.889l15.301-1.857c1.185-0.144,2.032-1.224,1.888-2.409l-0.221-1.823
				c-0.144-1.185-1.225-2.032-2.409-1.889l-10.157,1.233c-0.382,0.045-0.729-0.226-0.775-0.608
				c-0.046-0.382,0.226-0.729,0.607-0.773l10.157-1.233C73.579,361.961,75.356,363.353,75.592,365.299z"/>
		</g>
		<g>
			<path fill="#AFCDFB" d="M91.132,362.614l0.397,3.27c0.368,3.033-1.978,5.825-5.23,6.218l-23.003,2.794
				c-0.381,0.044-0.728-0.227-0.774-0.607c-0.046-0.382,0.225-0.729,0.606-0.775l23.003-2.791c2.49-0.304,4.292-2.397,4.016-4.671
				l-0.397-3.271c-0.276-2.271-2.526-3.876-5.016-3.572l-26.202,3.179c-2.49,0.303-4.291,2.397-4.015,4.671
				c0.046,0.381-0.226,0.729-0.607,0.775c-0.381,0.045-0.728-0.226-0.775-0.607c-0.368-3.035,1.978-5.827,5.23-6.221l26.202-3.18
				C87.818,357.431,90.764,359.579,91.132,362.614z"/>
		</g>
	</g>
	<circle fill="#F99746" cx="338.436" cy="148.783" r="2.121"/>
</g>
</svg>
